<svg width="12" height="8" viewBox="0 0 12 8" fill="none" xmlns="http://www.w3.org/2000/svg">
<path opacity="0.6" d="M10.6664 0.5C10.4896 0.5 10.3199 0.570201 10.1949 0.695159C10.0698 0.820118 9.99954 0.989598 9.99954 1.16632V3.83158C9.99954 4.0083 9.92928 4.17777 9.80422 4.30273C9.67916 4.42769 9.50953 4.49789 9.33267 4.49789H2.93734L3.80428 3.63835C3.92985 3.51288 4.0004 3.3427 4.0004 3.16526C4.0004 2.98782 3.92985 2.81765 3.80428 2.69218C3.6787 2.56671 3.50839 2.49622 3.3308 2.49622C3.15321 2.49622 2.98289 2.56671 2.85732 2.69218L0.856694 4.69112C0.795982 4.75449 0.74839 4.82922 0.716651 4.91101C0.649951 5.07323 0.649951 5.25519 0.716651 5.41741C0.74839 5.4992 0.795982 5.57392 0.856694 5.63729L2.85732 7.63624C2.91931 7.69869 2.99307 7.74826 3.07433 7.78209C3.1556 7.81592 3.24276 7.83333 3.3308 7.83333C3.41883 7.83333 3.506 7.81592 3.58726 7.78209C3.66853 7.74826 3.74228 7.69869 3.80428 7.63624C3.86678 7.5743 3.9164 7.5006 3.95025 7.4194C3.98411 7.33821 4.00154 7.25112 4.00154 7.16315C4.00154 7.07519 3.98411 6.9881 3.95025 6.9069C3.9164 6.82571 3.86678 6.75201 3.80428 6.69007L2.93734 5.83052H9.33267C9.86327 5.83052 10.3721 5.61992 10.7473 5.24505C11.1225 4.87017 11.3333 4.36173 11.3333 3.83158V1.16632C11.3333 0.989598 11.263 0.820118 11.138 0.695159C11.0129 0.570201 10.8433 0.5 10.6664 0.5Z" fill="white"/>
</svg>
